<?xml version="1.0" encoding="UTF-8"?>
<svg width="128px" height="128px" viewBox="0 0 128 128" version="1.1" xmlns="http://www.w3.org/2000/svg" xmlns:xlink="http://www.w3.org/1999/xlink">
    <!-- Generator: Sketch 60 (88103) - https://sketch.com -->
    <title>Normal: icon-128x128-SVG</title>
    <desc>Created with Sketch.</desc>
    <defs>
        <path d="M0,1.31649057 L0.810986057,7.03185275 L8.53753961,8.37649156 L14.7914077,7.03185275 L15.4911403,1.31649057 C13.113538,0.600506212 10.6012794,0.242514033 7.95436444,0.242514033 C5.30744947,0.242514033 2.65599466,0.600506212 0,1.31649057 Z" id="path-1"></path>
        <linearGradient x1="37.5020874%" y1="50%" x2="100%" y2="50%" id="linearGradient-3">
            <stop stop-color="#286AFF" offset="0%"></stop>
            <stop stop-color="#1856FF" offset="100%"></stop>
        </linearGradient>
        <linearGradient x1="50%" y1="0%" x2="50%" y2="100%" id="linearGradient-4">
            <stop stop-color="#83B8FE" offset="0%"></stop>
            <stop stop-color="#78A1FC" offset="100%"></stop>
        </linearGradient>
        <linearGradient x1="4.14000222%" y1="10.7522924%" x2="50%" y2="61.7920177%" id="linearGradient-5">
            <stop stop-color="#83B8FE" offset="0%"></stop>
            <stop stop-color="#4C82FC" offset="100%"></stop>
        </linearGradient>
        <linearGradient x1="50%" y1="0%" x2="50%" y2="100%" id="linearGradient-6">
            <stop stop-color="#83B8FE" offset="0%"></stop>
            <stop stop-color="#4C82FC" offset="100%"></stop>
        </linearGradient>
        <path d="M0,1.31649057 L0.810986057,7.03185275 L8.53753961,8.37649156 L14.7914077,7.03185275 L15.4911403,1.31649057 C13.113538,0.600506212 10.6012794,0.242514033 7.95436444,0.242514033 C5.30744947,0.242514033 2.65599466,0.600506212 0,1.31649057 Z" id="path-7"></path>
    </defs>
    <g id="Normal:-icon-128x128-SVG" stroke="none" stroke-width="1" fill="none" fill-rule="evenodd">
        <g id="SB-Logotype/Blue/Larger-Copy" transform="translate(20.000000, 44.000000)">
            <text id="SERVICEBOT" font-family="Avenir-Black, Avenir" font-size="11.1556455" font-weight="700" letter-spacing="2.04520154" fill="#FFFFFF">
                <tspan x="0" y="36.1612903">SERVICEBO</tspan>
                <tspan x="81.4027442" y="36.1612903">T</tspan>
            </text>
            <g id="White-Servicebot-2018" transform="translate(30.322581, 0.000000)">
                <g id="Group-9-Copy">
                    <path d="M14.0574414,0 C14.5928697,0 15.0269201,0.434308924 15.0269201,0.970056133 C15.0269201,1.50580334 14.5928697,1.94011227 14.0574414,1.94011227 L14.158,1.934 L13.5198115,3.8880779 C13.4867133,3.98928383 13.5237437,4.1002278 13.6109945,4.16126409 L14.9527802,5.09990972 C15.0174294,5.14513504 15.0559367,5.21906689 15.0559367,5.2979646 L15.0559367,7.16139223 C15.0559367,7.20282026 15.045514,7.24181396 15.0271479,7.2758942 L17.4665538,7.275421 C20.670322,7.275421 23.2674892,9.87258827 23.2674892,13.0763565 L23.267,13.095 L23.9965904,13.0957578 C24.3970614,13.0957578 24.7217073,13.4204037 24.7217073,13.8208747 L24.7217073,17.2209215 C24.7217073,17.6213925 24.3970614,17.9460385 23.9965904,17.9460385 L23.0882999,17.9466647 C22.4491899,20.45571 20.1745689,22.3112911 17.4665538,22.3112911 L9.67885034,22.3112911 C6.97083518,22.3112911 4.69621421,20.45571 4.05710424,17.9466647 L3.14881373,17.9460385 C2.74834271,17.9460385 2.4236968,17.6213925 2.4236968,17.2209215 L2.4236968,13.8208747 C2.4236968,13.4204037 2.74834271,13.0957578 3.14881373,13.0957578 L3.877,13.095 L3.87791487,13.0763565 C3.87791487,9.87258827 6.47508215,7.275421 9.67885034,7.275421 L12.0820807,7.2758942 C12.0637146,7.24181396 12.0532919,7.20282026 12.0532919,7.16139223 C12.0532919,7.12973187 12.059512,7.09837994 12.0715988,7.06911756 L12.7774578,5.36021929 C12.8223648,5.25149876 12.7824821,5.12623598 12.6829826,5.0634933 L11.7461877,4.47276627 C11.6332724,4.40156376 11.5994574,4.25230676 11.6706599,4.13939142 C11.6722677,4.1368418 11.673923,4.13432248 11.675625,4.13183477 L13.3709653,1.65503642 C13.1960832,1.4795666 13.0879627,1.23744534 13.0879627,0.970056133 C13.0879627,0.434308924 13.5220131,0 14.0574414,0 Z M13.6032521,13.4594048 C11.2220866,13.4594048 8.95209183,13.7520081 6.79326777,14.3372145 C6.78419667,14.4602249 6.78342572,14.585077 6.79084776,14.7113417 L6.79084776,14.7113417 L6.93454186,17.1558834 C7.02466168,18.6890127 8.29423588,19.8861507 9.83001158,19.8861507 L9.83001158,19.8861507 L17.5809946,19.8861507 C19.1196625,19.8861507 20.3905731,18.6846475 20.4768943,17.1484028 L20.4768943,17.1484028 L20.6142524,14.7038611 C20.6172971,14.6496746 20.6188204,14.5954133 20.6188204,14.5411413 C20.6188204,14.5220713 20.6186364,14.5030442 20.61827,14.4840618 L21.0596271,14.635072 C18.8444083,13.8512939 16.35895,13.4594048 13.6032521,13.4594048 Z M26.4202872,14.0658139 C26.8207582,14.0658139 27.1454041,14.3904598 27.1454041,14.7909309 L27.1454041,16.2508654 C27.1454041,16.6513364 26.8207582,16.9759823 26.4202872,16.9759823 L26.416303,16.9759823 C26.0158319,16.9759823 25.691186,16.6513364 25.691186,16.2508654 L25.691186,14.7909309 C25.691186,14.3904598 26.0158319,14.0658139 26.416303,14.0658139 L26.4202872,14.0658139 Z M0.729101145,14.0658139 C1.12957217,14.0658139 1.45421808,14.3904598 1.45421808,14.7909309 L1.45421808,16.2508654 C1.45421808,16.6513364 1.12957217,16.9759823 0.729101145,16.9759823 L0.725116933,16.9759823 C0.324645909,16.9759823 4.90435557e-17,16.6513364 0,16.2508654 L0,14.7909309 C-4.90435557e-17,14.3904598 0.324645909,14.0658139 0.725116933,14.0658139 L0.729101145,14.0658139 Z M13.5755123,10.6706175 C10.9287531,10.6706175 8.5855629,10.9313852 6.54478466,11.4567624 C6.02624407,11.5902553 5.71403683,12.1190832 5.84745025,12.6379326 C5.98086368,13.156782 6.50937682,13.4691752 7.0279174,13.3356824 C8.90028358,12.8536611 11.0832009,12.6107297 13.5755123,12.6107297 C16.072207,12.6107297 18.3368145,12.8544996 20.3695144,13.3397915 C20.8903231,13.4641307 21.4132587,13.1424772 21.5375239,12.6213584 C21.661789,12.1002395 21.340327,11.5769924 20.8195184,11.4526533 C18.6326168,10.9305468 16.2178883,10.6706175 13.5755123,10.6706175 Z" id="Combined-Shape" fill="#FFFFFF"></path>
                    <g id="Combined-Shape-Copy-107-+-Oval-21-Copy-90-+-Oval-21-Copy-91-Mask" transform="translate(6.301612, 12.610730)">
                        <mask id="mask-2" fill="white">
                            <use xlink:href="#path-1"></use>
                        </mask>
                        <g id="Mask"></g>
                        <path d="M11.416741,-0.970056133 C12.5761221,-0.970056133 13.5766254,-0.289819212 14.0409115,0.693315298 C13.4110799,0.183420854 12.572154,-0.0610783143 11.7114806,0.0907720158 L11.7114806,0.0907720158 L4.5993488,1.34557965 C4.5423259,1.35564032 4.48561706,1.36740629 4.42929851,1.38086177 C2.87126475,1.75310288 1.90998987,3.31789984 2.28223098,4.8759336 L2.28223098,4.8759336 L2.70120617,6.62957517 C2.74982992,6.83309233 2.81892214,7.02664333 2.90582809,7.20848576 C1.66274483,6.93643316 0.710534519,5.86536793 0.632930193,4.54515365 L0.489236089,2.10061198 C0.395237014,0.501488211 1.61538166,-0.871059045 3.21450543,-0.96505812 C3.27117775,-0.968389411 3.32793566,-0.970056133 3.38470581,-0.970056133 L11.416741,-0.970056133 Z" id="Combined-Shape-Copy-107" fill-opacity="0.281476449" fill="#FFFFFF" mask="url(#mask-2)"></path>
                        <ellipse id="Oval-21-Copy-90" fill="#FFFFFF" mask="url(#mask-2)" cx="5.33213295" cy="3.88022453" rx="1.45421808" ry="1.4550842"></ellipse>
                        <ellipse id="Oval-21-Copy-91" fill="#FFFFFF" mask="url(#mask-2)" cx="9.69478719" cy="3.88022453" rx="1.45421808" ry="1.4550842"></ellipse>
                    </g>
                </g>
            </g>
        </g>
        <path d="M66.2087181,166.5 C122.657034,166.5 164,137.169527 164,77.3589744 C164,66.7953952 164,37.3912806 164,28.4942629 C164,-15.1027228 112.09772,-38 66.2087181,-38 C9.76040178,-38 -36,7.77888433 -36,64.25 C-36,120.721116 9.76040178,166.5 66.2087181,166.5 Z" id="Oval" fill="url(#linearGradient-3)"></path>
        <g id="Group-2" style="mix-blend-mode: normal;" transform="translate(73.500000, 104.000000) scale(1, -1) translate(-73.500000, -104.000000) translate(-12.000000, 63.500000)">
            <ellipse id="Oval-Copy-5" stroke="#4C82FC" stroke-width="1.5875" opacity="0.093251" transform="translate(145.500000, 35.000000) scale(-1, -1) translate(-145.500000, -35.000000) " cx="145.5" cy="35" rx="25.5" ry="25"></ellipse>
            <polygon id="Fill-1-Copy" fill="#4C82FC" opacity="0.093251" points="23.9409181 45 24.5000049 45.6988591 25.0590884 45.0000041 25.5 45.5511441 24.9409165 46.2499991 25.4999982 46.9488519 25.0590801 47.5 24.4999984 46.8011472 23.9409199 47.4999959 23.5000084 46.9488559 24.0590868 46.2500073 23.5 45.5511481"></polygon>
            <polygon id="Fill-1-Copy-2" fill="url(#linearGradient-4)" opacity="0.093251" transform="translate(115.649498, 14.832664) rotate(20.000000) translate(-115.649498, -14.832664) " points="114.536782 12.7273115 115.650349 13.903939 116.766063 12.7252837 117.644253 13.6532052 116.528539 14.8318605 117.642095 16.0084773 116.762193 16.9380172 115.648637 15.7614004 114.532932 16.940045 113.654742 16.0121234 114.770447 14.8334789 113.65688 13.6568514"></polygon>
            <polygon id="Fill-1-Copy-3" fill="url(#linearGradient-5)" opacity="0.063251" transform="translate(56.675020, 21.434982) rotate(10.000000) translate(-56.675020, -21.434982) " points="46.9119817 3.18902874 56.6789496 13.3880175 66.4557952 3.17959944 74.1583007 11.2228087 64.3814551 21.4312267 74.148334 31.6301225 66.4378793 39.6809344 56.6710004 29.4820387 46.894244 39.6903637 39.1917385 31.6471544 48.9684949 21.4388294 39.201527 11.2398407"></polygon>
            <polygon id="Fill-1-Copy-4" fill="url(#linearGradient-6)" opacity="0.053251" transform="translate(96.786803, 71.960131) scale(1, -1) rotate(10.000000) translate(-96.786803, -71.960131) " points="93.0315935 64.9790538 96.7883095 68.8812822 100.548811 64.9754327 103.511462 68.0528397 99.7509613 71.9586892 103.507643 75.8608821 100.541945 78.9412085 96.7852629 75.0390157 93.024796 78.9448296 90.0621442 75.8674225 93.8226111 71.9616086 90.0658952 68.0593802"></polygon>
        </g>
        <g id="SB-Logotype/Blue/Larger-Copy" transform="translate(20.000000, 44.000000)">
            <text id="SERVICEBOT" font-family="Avenir-Black, Avenir" font-size="11.1556455" font-weight="700" letter-spacing="2.04520154" fill="#FFFFFF">
                <tspan x="0" y="36">SERVICEBO</tspan>
                <tspan x="81.4027442" y="36">T</tspan>
            </text>
            <g id="White-Servicebot-2018" transform="translate(30.500000, 0.000000)">
                <g id="Group-9-Copy">
                    <path d="M14.0574414,0 C14.5928697,0 15.0269201,0.434308924 15.0269201,0.970056133 C15.0269201,1.50580334 14.5928697,1.94011227 14.0574414,1.94011227 L14.158,1.934 L13.5198115,3.8880779 C13.4867133,3.98928383 13.5237437,4.1002278 13.6109945,4.16126409 L14.9527802,5.09990972 C15.0174294,5.14513504 15.0559367,5.21906689 15.0559367,5.2979646 L15.0559367,7.16139223 C15.0559367,7.20282026 15.045514,7.24181396 15.0271479,7.2758942 L17.4665538,7.275421 C20.670322,7.275421 23.2674892,9.87258827 23.2674892,13.0763565 L23.267,13.095 L23.9965904,13.0957578 C24.3970614,13.0957578 24.7217073,13.4204037 24.7217073,13.8208747 L24.7217073,17.2209215 C24.7217073,17.6213925 24.3970614,17.9460385 23.9965904,17.9460385 L23.0882999,17.9466647 C22.4491899,20.45571 20.1745689,22.3112911 17.4665538,22.3112911 L9.67885034,22.3112911 C6.97083518,22.3112911 4.69621421,20.45571 4.05710424,17.9466647 L3.14881373,17.9460385 C2.74834271,17.9460385 2.4236968,17.6213925 2.4236968,17.2209215 L2.4236968,13.8208747 C2.4236968,13.4204037 2.74834271,13.0957578 3.14881373,13.0957578 L3.877,13.095 L3.87791487,13.0763565 C3.87791487,9.87258827 6.47508215,7.275421 9.67885034,7.275421 L12.0820807,7.2758942 C12.0637146,7.24181396 12.0532919,7.20282026 12.0532919,7.16139223 C12.0532919,7.12973187 12.059512,7.09837994 12.0715988,7.06911756 L12.7774578,5.36021929 C12.8223648,5.25149876 12.7824821,5.12623598 12.6829826,5.0634933 L11.7461877,4.47276627 C11.6332724,4.40156376 11.5994574,4.25230676 11.6706599,4.13939142 C11.6722677,4.1368418 11.673923,4.13432248 11.675625,4.13183477 L13.3709653,1.65503642 C13.1960832,1.4795666 13.0879627,1.23744534 13.0879627,0.970056133 C13.0879627,0.434308924 13.5220131,0 14.0574414,0 Z M13.6032521,13.4594048 C11.2220866,13.4594048 8.95209183,13.7520081 6.79326777,14.3372145 C6.78419667,14.4602249 6.78342572,14.585077 6.79084776,14.7113417 L6.79084776,14.7113417 L6.93454186,17.1558834 C7.02466168,18.6890127 8.29423588,19.8861507 9.83001158,19.8861507 L9.83001158,19.8861507 L17.5809946,19.8861507 C19.1196625,19.8861507 20.3905731,18.6846475 20.4768943,17.1484028 L20.4768943,17.1484028 L20.6142524,14.7038611 C20.6172971,14.6496746 20.6188204,14.5954133 20.6188204,14.5411413 C20.6188204,14.5220713 20.6186364,14.5030442 20.61827,14.4840618 L21.0596271,14.635072 C18.8444083,13.8512939 16.35895,13.4594048 13.6032521,13.4594048 Z M26.4202872,14.0658139 C26.8207582,14.0658139 27.1454041,14.3904598 27.1454041,14.7909309 L27.1454041,16.2508654 C27.1454041,16.6513364 26.8207582,16.9759823 26.4202872,16.9759823 L26.416303,16.9759823 C26.0158319,16.9759823 25.691186,16.6513364 25.691186,16.2508654 L25.691186,14.7909309 C25.691186,14.3904598 26.0158319,14.0658139 26.416303,14.0658139 L26.4202872,14.0658139 Z M0.729101145,14.0658139 C1.12957217,14.0658139 1.45421808,14.3904598 1.45421808,14.7909309 L1.45421808,16.2508654 C1.45421808,16.6513364 1.12957217,16.9759823 0.729101145,16.9759823 L0.725116933,16.9759823 C0.324645909,16.9759823 4.90435557e-17,16.6513364 0,16.2508654 L0,14.7909309 C-4.90435557e-17,14.3904598 0.324645909,14.0658139 0.725116933,14.0658139 L0.729101145,14.0658139 Z M13.5755123,10.6706175 C10.9287531,10.6706175 8.5855629,10.9313852 6.54478466,11.4567624 C6.02624407,11.5902553 5.71403683,12.1190832 5.84745025,12.6379326 C5.98086368,13.156782 6.50937682,13.4691752 7.0279174,13.3356824 C8.90028358,12.8536611 11.0832009,12.6107297 13.5755123,12.6107297 C16.072207,12.6107297 18.3368145,12.8544996 20.3695144,13.3397915 C20.8903231,13.4641307 21.4132587,13.1424772 21.5375239,12.6213584 C21.661789,12.1002395 21.340327,11.5769924 20.8195184,11.4526533 C18.6326168,10.9305468 16.2178883,10.6706175 13.5755123,10.6706175 Z" id="Combined-Shape" fill="#FFFFFF"></path>
                    <g id="Combined-Shape-Copy-107-+-Oval-21-Copy-90-+-Oval-21-Copy-91-Mask" transform="translate(6.301612, 12.610730)">
                        <mask id="mask-8" fill="white">
                            <use xlink:href="#path-7"></use>
                        </mask>
                        <g id="Mask"></g>
                        <path d="M11.416741,-0.970056133 C12.5761221,-0.970056133 13.5766254,-0.289819212 14.0409115,0.693315298 C13.4110799,0.183420854 12.572154,-0.0610783143 11.7114806,0.0907720158 L11.7114806,0.0907720158 L4.5993488,1.34557965 C4.5423259,1.35564032 4.48561706,1.36740629 4.42929851,1.38086177 C2.87126475,1.75310288 1.90998987,3.31789984 2.28223098,4.8759336 L2.28223098,4.8759336 L2.70120617,6.62957517 C2.74982992,6.83309233 2.81892214,7.02664333 2.90582809,7.20848576 C1.66274483,6.93643316 0.710534519,5.86536793 0.632930193,4.54515365 L0.489236089,2.10061198 C0.395237014,0.501488211 1.61538166,-0.871059045 3.21450543,-0.96505812 C3.27117775,-0.968389411 3.32793566,-0.970056133 3.38470581,-0.970056133 L11.416741,-0.970056133 Z" id="Combined-Shape-Copy-107" fill-opacity="0.281476449" fill="#FFFFFF" mask="url(#mask-8)"></path>
                        <ellipse id="Oval-21-Copy-90" fill="#FFFFFF" mask="url(#mask-8)" cx="5.33213295" cy="3.88022453" rx="1.45421808" ry="1.4550842"></ellipse>
                        <ellipse id="Oval-21-Copy-91" fill="#FFFFFF" mask="url(#mask-8)" cx="9.69478719" cy="3.88022453" rx="1.45421808" ry="1.4550842"></ellipse>
                    </g>
                </g>
            </g>
        </g>
    </g>
</svg>